<?xml version="1.0" standalone="no"?>
<!DOCTYPE svg PUBLIC "-//W3C//DTD SVG 20010904//EN"
 "http://www.w3.org/TR/2001/REC-SVG-20010904/DTD/svg10.dtd">
<svg version="1.0" xmlns="http://www.w3.org/2000/svg"
 width="1966.000000pt" height="1916.000000pt" viewBox="0 0 1966.000000 1916.000000"
 preserveAspectRatio="xMidYMid meet">

<g transform="translate(0.000000,1916.000000) scale(0.100000,-0.100000)"
fill="#000000" stroke="none">
<path d="M10 10755 l0 -8396 43 25 c23 13 2119 1151 4657 2529 7912 4294 7488
4063 7562 4124 181 148 324 361 374 558 26 101 23 284 -5 390 -77 292 -370
650 -661 808 -151 83 -327 117 -489 97 -197 -24 -355 -91 -703 -297 -120 -70
-297 -170 -395 -220 -246 -128 -1192 -640 -2151 -1164 -442 -242 -849 -460
-905 -485 -217 -97 -469 -167 -717 -200 -147 -20 -450 -22 -585 -5 -682 88
-1247 423 -1734 1031 -562 701 -672 1412 -334 2165 243 541 739 1088 1298
1430 66 40 1013 561 2105 1157 6858 3744 8209 4483 8202 4489 -11 9 -275 83
-461 129 -390 95 -757 155 -1281 207 -152 16 -714 17 -6992 20 l-6828 3 0
-8395z"/>
<path d="M16535 17719 c-5013 -2636 -8817 -4695 -10155 -5497 -371 -222 -550
-342 -643 -431 -131 -126 -231 -296 -274 -468 -25 -100 -23 -293 5 -404 63
-258 261 -550 463 -685 325 -215 762 -242 1164 -71 44 18 800 427 1680 907
880 481 1647 895 1705 921 206 92 490 178 721 218 538 92 1042 25 1485 -199
310 -156 586 -386 830 -691 305 -380 492 -773 565 -1185 33 -183 33 -482 1
-665 -76 -426 -263 -820 -579 -1214 -90 -112 -342 -373 -423 -437 -25 -20
-463 -267 -975 -550 -4196 -2324 -7188 -3946 -8925 -4838 -588 -302 -939 -495
-1300 -713 -970 -588 -1618 -1147 -1821 -1570 -21 -45 -42 -97 -45 -114 l-6
-33 6523 0 c4200 0 6592 4 6714 10 1302 68 2598 391 3617 901 774 387 1417
906 1875 1515 443 587 740 1316 852 2089 54 371 75 874 52 1210 -73 1032 -434
1879 -1119 2620 -687 745 -1759 1348 -2927 1645 -104 27 -183 49 -175 50 55 2
373 54 515 85 884 191 1660 589 2206 1135 545 544 869 1219 979 2039 99 748 4
1702 -246 2449 -281 844 -767 1547 -1440 2083 -128 102 -273 209 -283 209 -3
0 -280 -144 -616 -321z"/>
</g>
</svg>
